<svg id="a" xmlns="http://www.w3.org/2000/svg" viewBox="0 0 51 51"><defs><style>.h{fill:none;}.i{fill:#f59100;}.j{fill:#fff;}.k{clip-path:url(#d);}</style><clipPath id="d"><rect width="51" height="51" style="fill:none;"/></clipPath></defs><rect id="b" width="51" height="51" style="fill:#f59100;"/><g id="c"><g style="clip-path:url(#d);"><g id="e"><path id="f" d="M20.25,25.43c0,2.63-.58,4.65-3.53,4.65-3.3,0-3.66-2.37-3.66-4.3V10.72l-4.23,.93v14.75c0,5.61,3.91,7.76,7.69,7.76,4.94,0,7.95-3.17,7.95-7.15V10.72l-4.23,.93v13.79Z" style="fill:#fff;"/><path id="g" d="M34.89,30.44c-2.73,.13-5.04-1.98-5.17-4.71s1.98-5.04,4.71-5.17c2.73-.13,5.04,1.98,5.17,4.71,0,.08,0,.15,0,.23,.08,2.65-2,4.86-4.64,4.94h-.07m.26-13.58c-1.64,0-3.24,.49-4.58,1.43v-2.4l-4.08,.99v22.54l4.07-.93v-5.77c1.35,.94,2.95,1.44,4.59,1.44,4.78-.19,8.49-4.22,8.3-9-.18-4.51-3.79-8.12-8.3-8.3" style="fill:#fff;"/></g></g></g></svg>